{
    "asset" : {
        "generator" : "Khronos glTF Blender I/O v1.6.16",
        "version" : "2.0"
    },
    "scene" : 0,
    "scenes" : [
        {
            "name" : "Scene",
            "nodes" : [
                7
            ]
        }
    ],
    "nodes" : [
        {
            "mesh" : 0,
            "name" : "Object_9"
        },
        {
            "children" : [
                0
            ],
            "name" : "Cube.001_2"
        },
        {
            "mesh" : 1,
            "name" : "Object_5"
        },
        {
            "children" : [
                2
            ],
            "name" : "Cube_0",
            "translation" : [
                0,
                -0.05521932244300842,
                0.02691974863409996
            ]
        },
        {
            "name" : "Plane_1",
            "rotation" : [
                -0.7070589661598206,
                0,
                0,
                0.7071546912193298
            ],
            "scale" : [
                0.27191901206970215,
                0.27191901206970215,
                0.27191901206970215
            ],
            "translation" : [
                0,
                -0.05521932244300842,
                0.02691974863409996
            ]
        },
        {
            "children" : [
                1,
                3,
                4
            ],
            "name" : "GLTF_SceneRootNode",
            "rotation" : [
                0.7071068286895752,
                0,
                0,
                0.7071068286895752
            ]
        },
        {
            "children" : [
                5
            ],
            "name" : "root"
        },
        {
            "children" : [
                6
            ],
            "name" : "Sketchfab_model",
            "rotation" : [
                -0.7071068286895752,
                0,
                0,
                0.7071068286895752
            ]
        }
    ],
    "materials" : [
        {
            "doubleSided" : true,
            "name" : "Main_MAt",
            "pbrMetallicRoughness" : {
                "baseColorFactor" : [
                    0.012286487966775894,
                    0.012286487966775894,
                    0.012286487966775894,
                    1
                ],
                "metallicFactor" : 0,
                "roughnessFactor" : 0.5
            }
        },
        {
            "doubleSided" : true,
            "name" : "Main",
            "pbrMetallicRoughness" : {
                "baseColorFactor" : [
                    0.012286487966775894,
                    0.012286487966775894,
                    0.012286487966775894,
                    1
                ],
                "metallicFactor" : 0,
                "roughnessFactor" : 0.5
            }
        }
    ],
    "meshes" : [
        {
            "name" : "Object_3",
            "primitives" : [
                {
                    "attributes" : {
                        "POSITION" : 0,
                        "NORMAL" : 1,
                        "TEXCOORD_0" : 2
                    },
                    "indices" : 3,
                    "material" : 0
                }
            ]
        },
        {
            "name" : "Object_1",
            "primitives" : [
                {
                    "attributes" : {
                        "POSITION" : 4,
                        "NORMAL" : 5,
                        "TEXCOORD_0" : 6
                    },
                    "indices" : 7,
                    "material" : 1
                }
            ]
        }
    ],
    "accessors" : [
        {
            "bufferView" : 0,
            "componentType" : 5126,
            "count" : 1266,
            "max" : [
                0.9994563460350037,
                1.0834492444992065,
                0.17010313272476196
            ],
            "min" : [
                -1.011277437210083,
                -0.18542656302452087,
                -0.9430538415908813
            ],
            "type" : "VEC3"
        },
        {
            "bufferView" : 1,
            "componentType" : 5126,
            "count" : 1266,
            "type" : "VEC3"
        },
        {
            "bufferView" : 2,
            "componentType" : 5126,
            "count" : 1266,
            "type" : "VEC2"
        },
        {
            "bufferView" : 3,
            "componentType" : 5123,
            "count" : 1464,
            "type" : "SCALAR"
        },
        {
            "bufferView" : 4,
            "componentType" : 5126,
            "count" : 766,
            "max" : [
                1.9242645502090454,
                2.505762815475464,
                -0.23673224449157715
            ],
            "min" : [
                -1.9242645502090454,
                0.5057628154754639,
                -0.5006232857704163
            ],
            "type" : "VEC3"
        },
        {
            "bufferView" : 5,
            "componentType" : 5126,
            "count" : 766,
            "type" : "VEC3"
        },
        {
            "bufferView" : 6,
            "componentType" : 5126,
            "count" : 766,
            "type" : "VEC2"
        },
        {
            "bufferView" : 7,
            "componentType" : 5123,
            "count" : 918,
            "type" : "SCALAR"
        }
    ],
    "bufferViews" : [
        {
            "buffer" : 0,
            "byteLength" : 15192,
            "byteOffset" : 0
        },
        {
            "buffer" : 0,
            "byteLength" : 15192,
            "byteOffset" : 15192
        },
        {
            "buffer" : 0,
            "byteLength" : 10128,
            "byteOffset" : 30384
        },
        {
            "buffer" : 0,
            "byteLength" : 2928,
            "byteOffset" : 40512
        },
        {
            "buffer" : 0,
            "byteLength" : 9192,
            "byteOffset" : 43440
        },
        {
            "buffer" : 0,
            "byteLength" : 9192,
            "byteOffset" : 52632
        },
        {
            "buffer" : 0,
            "byteLength" : 6128,
            "byteOffset" : 61824
        },
        {
            "buffer" : 0,
            "byteLength" : 1836,
            "byteOffset" : 67952
        }
    ],
    "buffers" : [
        {
            "byteLength" : 69788,
            "uri" : "data:application/octet-stream;base64,"
        }
    ]
}
