{"accessors" : [{"bufferView" : 0, "byteOffset" : 0, "componentType" : 5123, "count" : 18798, "type" : "SCALAR", "max" : [15501], "min" : [0]}, {"bufferView" : 1, "byteOffset" : 0, "componentType" : 5126, "count" : 15502, "type" : "VEC3", "max" : [2.627427101135254, 0.7389150261878967, 7.683114051818848], "min" : [-0.9906700253486633, -1.3213779926300049, 0.3864459991455078], "name" : "POSITION"}, {"bufferView" : 1, "byteOffset" : 12, "componentType" : 5126, "count" : 15502, "type" : "VEC3", "max" : [0.999950110912323, 0.6143728494644165, 0.9997937083244324], "min" : [-1.000003457069397, -0.622870147228241, -1.0000039339065552], "name" : "NORMAL"}, {"bufferView" : 1, "byteOffset" : 24, "componentType" : 5126, "count" : 15502, "type" : "VEC2", "max" : [0.15257300436496735, 0.9980080127716064], "min" : [0.0017219999572262168, 0.0019919872283935547], "name" : "TEXCOORD_0"}, {"bufferView" : 0, "byteOffset" : 37596, "componentType" : 5123, "count" : 60066, "type" : "SCALAR", "max" : [52747], "min" : [0]}, {"bufferView" : 2, "byteOffset" : 0, "componentType" : 5126, "count" : 52748, "type" : "VEC3", "max" : [2.596482992172241, 0.6341800093650818, 7.665568828582764], "min" : [-0.9593489766120911, -1.3298170566558838, 0.46209800243377686], "name" : "POSITION"}, {"bufferView" : 2, "byteOffset" : 12, "componentType" : 5126, "count" : 52748, "type" : "VEC3", "max" : [1.0000044107437134, 0.9370543956756592, 0.9705127477645874], "min" : [-1.0000044107437134, -0.9989675879478455, -0.9993289113044739], "name" : "NORMAL"}, {"bufferView" : 2, "byteOffset" : 24, "componentType" : 5126, "count" : 52748, "type" : "VEC2", "max" : [0.9997619986534119, 0.9998379945755005], "min" : [0.00023799999326001853, 0.00013399124145507812], "name" : "TEXCOORD_0"}], "asset" : {"generator" : "Aspose.3D 22.1", "version" : "2.0"}, "buffers" : [{"uri" : "data:application/octet-stream;base64,", "byteLength" : 2681388}], "bufferViews" : [{"buffer" : 0, "byteOffset" : 0, "byteLength" : 157728, "target" : 34963}, {"buffer" : 0, "byteOffset" : 157732, "byteLength" : 601536, "byteStride" : 32, "target" : 34962}, {"buffer" : 0, "byteOffset" : 759272, "byteLength" : 1922112, "byteStride" : 32, "target" : 34962}], "images" : [{"uri" : "data:image/jpeg;base64,"}], "materials" : [{"name" : "MarcoSG", "pbrMetallicRoughness" : {"baseColorFactor" : [0.0385875403881073, 0.0385875403881073, 0.0385875403881073, 1], "metallicFactor" : 0.8590144515037537, "roughnessFactor" : 0.08075229823589325}, "emissiveFactor" : [0, 0, 0], "alphaMode" : "OPAQUE", "doubleSided" : true}, {"name" : "BackSt1SG", "pbrMetallicRoughness" : {"baseColorFactor" : [1, 1, 1, 1], "baseColorTexture" : {"index" : 0, "texCoord" : 0}, "metallicFactor" : 0.5, "roughnessFactor" : 0.12331350892782211}, "emissiveFactor" : [0, 0, 0], "alphaMode" : "OPAQUE", "doubleSided" : true}], "meshes" : [{"primitives" : [{"attributes" : {"POSITION" : 1, "NORMAL" : 2, "TEXCOORD_0" : 3}, "indices" : 0, "material" : 0, "mode" : 4}]}, {"primitives" : [{"attributes" : {"POSITION" : 5, "NORMAL" : 6, "TEXCOORD_0" : 7}, "indices" : 4, "material" : 1, "mode" : 4}]}], "nodes" : [{"mesh" : 0, "name" : "Object_14"}, {"mesh" : 1, "name" : "Object_2"}, {"children" : [0, 1], "name" : "P40_Sketch.obj.cleaner.materialmerger.gles"}, {"children" : [2], "matrix" : [0.6272074438180133, 0.0003205289241241047, 0.00025419165061814835, 0, 0.00016729345325400984, 0.15467864809393864, -0.6078354572231828, 0, -0.00037331634341642426, 0.6078353379694252, 0.15467851499970794, 0, 0.04168415069580078, 0.03186678886413574, 0.024645566940307617, 1], "name" : "Sketchfab_model"}], "samplers" : [{"magFilter" : 9729, "minFilter" : 9987, "wrapS" : 10497, "wrapT" : 10497}], "scene" : 0, "scenes" : [{"nodes" : [3]}], "textures" : [{"sampler" : 0, "source" : 0}]}